<?xml version="1.0" encoding="UTF-8"?> <svg xmlns="http://www.w3.org/2000/svg" id="uuid-6f7d19bc-8624-4b55-b6d0-059b43b3f48b" data-name="Layer 2" viewBox="0 0 383.346 137.022"><g id="uuid-f7c7de1d-a690-49c7-988e-020745f50c0b" data-name="Layer 1"><g><path d="m87.071,19.044l.586,69.654h-21.599c-10.372,0-18.803-8.361-18.891-18.732l-.428-50.922h40.332Zm263.031,82.921c0,13.847-11.264,25.111-25.109,25.111s-25.109-11.264-25.109-25.111,11.265-25.109,25.109-25.109,25.109,11.264,25.109,25.109Zm-11.511,0c0-7.498-6.1-13.598-13.598-13.598s-13.597,6.1-13.597,13.598,6.099,13.598,13.597,13.598,13.598-6.1,13.598-13.598Zm-121.583-19.645l10.265-3.421v47.561h-11.513v-4.126l-1.729,1.06c-3.933,2.408-8.453,3.682-13.074,3.682-13.844,0-25.108-11.264-25.108-25.111s11.264-25.109,25.108-25.109c4.622,0,9.143,1.273,13.074,3.681l2.977,1.783Zm-2.452,19.645c0-7.498-6.101-13.598-13.599-13.598s-13.597,6.1-13.597,13.598,6.099,13.598,13.597,13.598,13.599-6.1,13.599-13.598Zm-53.329-24.297v-11.879l-11.511,5.962v5.917l.05,11.897-.167,20.907c0,8.808,7.165,15.973,15.973,15.973h8.137v-11.511h-8.137c-2.46,0-4.462-2.002-4.462-4.462l.167-20.907h13.027v-11.897h-13.077Zm207.739,3.321l-4.167,2.408-9.029-4.176v47.239h11.513v-23.214c0-7.647,6.22-13.868,13.867-13.868.734,0,1.461.073,2.18.187v-11.574c-4.936-.407-10.007.605-14.364,2.998Zm-85.702,45.153h11.512v-52.046l-11.512-5.958v58.004Zm-27.866-16.95l-11.535-31.52-13.108-.177,18.929,46.407-5.097,13.12h12.184l23.415-59.527h-12.777l-12.011,31.697Z" fill="#ff9e18" stroke-width="0"></path><path d="m40.166,19.044l.585,69.654H.419L0,39.001c-.092-10.995,8.795-19.957,19.79-19.957h20.375Zm286.559,24.525c0,13.847-11.264,25.111-25.109,25.111s-25.109-11.264-25.109-25.111,11.265-25.109,25.109-25.109,25.109,11.264,25.109,25.109Zm-11.511,0c0-7.498-6.1-13.598-13.598-13.598s-13.597,6.1-13.597,13.598,6.099,13.598,13.597,13.598,13.598-6.1,13.598-13.598Zm-171.062-1.052c0,6.319-2.538,12.041-6.621,16.258,3.708,3.241,6.017,8.045,5.849,13.383-.293,9.3-8.282,16.521-17.586,16.52h-12.84c-5.121,0-9.859-2.248-13.082-6.039l8.265-8.265c1.016,1.693,2.824,2.738,4.817,2.738h13.21c2.624,0,5.013-1.773,5.54-4.344.724-3.535-1.971-6.654-5.381-6.654l-6.458-.162v-.038c-12.511-.459-22.55-10.774-22.55-23.397,0-12.912,10.506-23.418,23.418-23.418.849,0,23.08.136,23.08.136l-5.899,7.39c3.868,4.179,6.238,9.763,6.238,15.892Zm-11.36,0c0-6.649-5.409-12.058-12.059-12.058s-12.058,5.409-12.058,12.058c0,6.474,5.131,11.754,11.538,12.03h1.041c6.407-.276,11.538-5.556,11.538-12.03ZM205.439,7.033l11.511-.035v59.637l-9.152-3.798-3.774,2.253c-2.747,1.597-5.755,2.745-8.9,3.204-15.2,2.219-28.299-9.561-28.299-24.343,0-14.333,12.316-25.845,26.923-24.506,3.671.336,7.201,1.585,10.391,3.435l1.3.753V7.033Zm-.901,36.918c0-7.225-5.876-13.101-13.1-13.101s-13.101,5.876-13.101,13.101,5.877,13.101,13.101,13.101,13.1-5.877,13.1-13.101Zm153.428-24.672c-4.253,0-8.466,1.081-12.186,3.124l-3.7,2.564-9.493-4.365v47.463h11.51v-23.407c0-7.646,6.221-13.867,13.869-13.867s13.868,6.221,13.868,13.867v23.407h11.512v-23.407c0-13.994-11.386-25.379-25.38-25.379Zm-85.783,24.292v5.037l-37.28-.04,1.089,1.74c2.416,3.861,6.706,6.277,11.771,6.626,3.063.202,8.945-1.099,11.307-2.973l10.034,6.018c-3.276,4.495-9.397,6.944-14.255,7.966-4.451.936-10.212.24-11.338.024-12.166-2.337-20.963-12.31-20.963-24.398,0-13.685,11.133-24.818,24.816-24.818s24.819,11.133,24.819,24.818Zm-12.077-3.784c-1.67-5.612-6.888-9.521-12.742-9.521s-11.071,3.909-12.74,9.521h25.482Zm-110.39,25.831l11.511-6.004V19.233h-11.511v46.385ZM155.561,0h-.044c-3.765,0-6.827,3.064-6.827,6.828,0,.082.009.162.012.243-.003.081-.012.161-.012.243,0,3.765,3.062,6.829,6.827,6.829,3.809,0,6.872-3.064,6.872-6.829,0-.082-.009-.162-.012-.243.003-.081.012-.161.012-.243,0-3.764-3.063-6.828-6.828-6.828Z" fill="#00b2e3" stroke-width="0"></path></g></g></svg> 